<svg width="20" height="20" viewBox="0 0 20 20" fill="none" xmlns="http://www.w3.org/2000/svg">
<path opacity="0.3" d="M9.875 0.125C13.4544 0.125 16.5894 2.02918 18.3213 4.87988C19.2284 6.37285 19.751 8.12544 19.751 10C19.751 10.1703 19.7468 10.3396 19.7383 10.5078C19.7297 10.6763 19.7161 10.8436 19.6992 11.0098C19.5475 12.5034 19.0634 13.8987 18.3213 15.1201C18.2387 15.256 18.1533 15.39 18.0645 15.5215C17.177 16.835 15.9815 17.9235 14.582 18.6836C13.1829 19.4435 11.5791 19.875 9.875 19.875C9.70469 19.875 9.53538 19.8708 9.36719 19.8623C6.33748 19.7088 3.66803 18.1894 1.96191 15.9082C1.8672 15.7816 1.7752 15.6527 1.68652 15.5215C1.59768 15.39 1.51226 15.256 1.42969 15.1201C1.34724 14.9844 1.26739 14.8469 1.19141 14.707C0.431316 13.3079 2.45421e-05 11.7042 0 10C0 4.54634 4.42117 0.125108 9.875 0.125Z" fill="#FB8C00"/>
<path d="M9.87386 18.2298C14.4188 18.2298 18.1032 14.5455 18.1032 10.0007C18.1032 5.45581 14.4188 1.77148 9.87386 1.77148C5.32893 1.77148 1.64453 5.45581 1.64453 10.0007C1.64453 14.5455 5.32893 18.2298 9.87386 18.2298Z" stroke="#FB8C00" stroke-width="1.5" stroke-linecap="round" stroke-linejoin="round"/>
<path d="M8.96094 6.3418V10.9136H13.5328" stroke="#FB8C00" stroke-width="1.5" stroke-linecap="round" stroke-linejoin="round"/>
</svg>
