<svg width="19" height="20" viewBox="0 0 19 20" fill="none" xmlns="http://www.w3.org/2000/svg">
<path d="M14 14H17.65C17.9333 14 18.171 14.096 18.363 14.288C18.555 14.48 18.6507 14.7173 18.65 15C18.6493 15.2827 18.5537 15.5203 18.363 15.713C18.1723 15.9057 17.9347 16.0013 17.65 16H16.4L18.65 18.25C18.8333 18.4333 18.925 18.6627 18.925 18.938C18.925 19.2133 18.8333 19.4507 18.65 19.65C18.45 19.85 18.2127 19.95 17.938 19.95C17.6633 19.95 17.4257 19.85 17.225 19.65L15 17.425V18.65C15 18.9333 14.904 19.171 14.712 19.363C14.52 19.555 14.2827 19.6507 14 19.65C13.7173 19.6493 13.48 19.5537 13.288 19.363C13.096 19.1723 13 18.9347 13 18.65V15C13 14.7167 13.096 14.4793 13.288 14.288C13.48 14.0967 13.7173 14.0007 14 14ZM9 2V6C9 6.28333 9.096 6.521 9.288 6.713C9.48 6.905 9.71733 7.00067 10 7H14L9 2ZM2 0H9.175C9.44167 0 9.696 0.0500001 9.938 0.15C10.18 0.25 10.3923 0.391667 10.575 0.575L15.425 5.425C15.6083 5.60833 15.75 5.821 15.85 6.063C15.95 6.305 16 6.559 16 6.825V11C16 11.2833 15.904 11.521 15.712 11.713C15.52 11.905 15.2827 12.0007 15 12H12C11.7167 12 11.4793 12.096 11.288 12.288C11.0967 12.48 11.0007 12.7173 11 13V19C11 19.2833 10.904 19.521 10.712 19.713C10.52 19.905 10.2827 20.0007 10 20H2C1.45 20 0.979333 19.8043 0.588 19.413C0.196666 19.0217 0.000666667 18.5507 0 18V2C0 1.45 0.196 0.979333 0.588 0.588C0.98 0.196667 1.45067 0.000666667 2 0Z" fill="#268B2A"/>
</svg>
