<svg width="24" height="24" viewBox="0 0 24 24" fill="none" xmlns="http://www.w3.org/2000/svg">
<path d="M18 22H4V4H14L18 8V22Z" fill="#DAECEF"/>
<path d="M20 20H6V2H16L20 6V20Z" fill="#3949AB"/>
<path d="M19.25 6.5H15.5V2.75L19.25 6.5Z" fill="white"/>
<path d="M12.2484 14.1504C12.2484 11.8004 14.0484 11.9504 14.0484 10.5504C14.0484 10.2004 13.9484 9.50039 13.0484 9.50039C12.0484 9.50039 11.9984 10.3004 11.9984 10.5004H10.6484C10.6484 10.1504 10.7984 8.40039 13.0484 8.40039C15.3484 8.40039 15.3984 10.2004 15.3984 10.5504C15.3984 12.3004 13.4984 12.5504 13.4984 14.2004H12.2484V14.1504ZM12.1484 15.9004C12.1484 15.8004 12.1484 15.1504 12.8984 15.1504C13.5984 15.1504 13.6484 15.8004 13.6484 15.9004C13.6484 16.1004 13.5484 16.6004 12.8984 16.6004C12.2484 16.6004 12.1484 16.1004 12.1484 15.9004Z" fill="white"/>
</svg>
