<?xml version="1.0" encoding="UTF-8"?>
<svg version="1.1" xmlns="http://www.w3.org/2000/svg" width="152" height="154">
<path d="M0 0 C1.72330598 0.00502895 3.44661339 0.00958937 5.16992188 0.01367188 C9.34248409 0.024558 13.51497568 0.04174435 17.6875 0.0625 C18.04465088 0.80709473 18.40180176 1.55168945 18.76977539 2.31884766 C20.13133597 5.15603543 21.49393591 7.99272127 22.85717773 10.82910156 C23.72261108 12.63049031 24.58691008 14.43242388 25.45117188 16.234375 C29.45000672 24.55195147 33.53758931 32.81934344 37.6875 41.0625 C39.91278841 36.34929251 42.1364463 31.63532046 44.35864258 26.9206543 C45.11373623 25.31920969 45.86926331 23.71796936 46.62524414 22.11694336 C47.71616736 19.8063723 48.80549363 17.49505403 49.89453125 15.18359375 C50.22902786 14.47601425 50.56352448 13.76843475 50.90815735 13.03941345 C52.92700926 8.74965086 54.84397193 4.43058883 56.6875 0.0625 C61.3075 0.0625 65.9275 0.0625 70.6875 0.0625 C68.70593924 6.32325231 66.38808743 12.21675239 63.59765625 18.15625 C63.21185898 18.98781616 62.82606171 19.81938232 62.42857361 20.67614746 C61.20690307 23.3070627 59.97869828 25.93486066 58.75 28.5625 C57.52631794 31.190792 56.30400124 33.81971452 55.08213806 36.44885254 C54.32550095 38.0757105 53.56758689 39.70197545 52.80812073 41.32751465 C51.76204518 43.56984602 50.7235089 45.81550184 49.6875 48.0625 C49.30697983 48.87970016 48.92645966 49.69690033 48.53440857 50.53886414 C48.16727249 51.34096817 47.80013641 52.1430722 47.421875 52.96948242 C47.08841064 53.69278244 46.75494629 54.41608246 46.41137695 55.16130066 C45.11524415 58.56547982 46.06540231 60.61818647 47.44189453 63.81396484 C48.3395533 65.81327296 49.28598859 67.78188959 50.25 69.75 C53.6875 76.80662916 53.6875 76.80662916 53.6875 79.0625 C54.3475 79.0625 55.0075 79.0625 55.6875 79.0625 C56.04328125 77.8765625 56.3990625 76.690625 56.765625 75.46875 C58.83201936 69.28401723 61.66184999 63.46286708 64.46887207 57.58950806 C66.14634523 54.07912857 67.8075165 50.56105576 69.46875 47.04296875 C69.81335266 46.31389816 70.15795532 45.58482758 70.51300049 44.83366394 C75.0787594 35.14852239 79.46581847 25.38138932 83.85058594 15.61328125 C84.4472301 14.29034856 85.04390803 12.9674311 85.640625 11.64453125 C86.15786133 10.49186768 86.67509766 9.3392041 87.20800781 8.15161133 C89.86408338 2.60584827 89.86408338 2.60584827 91.6875 0.0625 C95.38755035 -0.47592409 98.79292978 -0.25376469 102.52075195 -0.08276367 C104.08829224 -0.01085815 104.08829224 -0.01085815 105.6875 0.0625 C100.88466468 11.14718637 95.93460028 22.15538078 90.875 33.125 C90.14123189 34.71909912 89.40759241 36.31325746 88.67407227 37.9074707 C84.74438989 46.4448703 80.80354891 54.97710002 76.859375 63.5078125 C76.05964708 65.23819774 75.25992373 66.96858509 74.46020508 68.69897461 C72.95134682 71.96360939 71.44056608 75.22734384 69.9284668 78.49047852 C65.07878118 88.96974424 60.34905463 99.49824105 55.6875 110.0625 C55.0275 110.0625 54.3675 110.0625 53.6875 110.0625 C53.01050773 108.62389143 52.33351571 107.18528273 51.65652466 105.74667358 C51.03972761 104.43598246 50.42292651 103.12529324 49.80612183 101.81460571 C48.03878615 98.05906487 46.27152762 94.30348774 44.50439453 90.54785156 C40.85599366 82.79421386 37.20669881 75.04100038 33.5546875 67.2890625 C24.8920956 48.89884467 16.27083555 30.4898485 7.6875 12.0625 C1.4175 12.0625 -4.8525 12.0625 -11.3125 12.0625 C-10.51328125 13.70992187 -9.7140625 15.35734375 -8.890625 17.0546875 C-2.25941399 30.75606696 4.24163757 44.50630841 10.59375 58.33984375 C13.90714245 65.55328651 17.26391852 72.74620899 20.625 79.9375 C21.79836164 82.44913256 22.97149178 84.9608732 24.14453125 87.47265625 C24.58059441 88.40635544 24.58059441 88.40635544 25.02546692 89.35891724 C28.0117977 95.7546376 30.99164867 102.15336198 33.96633911 108.55450439 C34.785549 110.31701554 35.60552997 112.07916823 36.42553711 113.84130859 C37.40779963 115.95605274 38.38694195 118.07225023 39.36230469 120.19018555 C40.21806238 122.0450104 41.08268785 123.89578137 41.95800781 125.74145508 C42.33022461 126.54091553 42.70244141 127.34037598 43.0859375 128.1640625 C43.40997559 128.84936035 43.73401367 129.5346582 44.06787109 130.24072266 C44.6875 132.0625 44.6875 132.0625 44.1875 135.125 C43.6925 136.094375 43.1975 137.06375 42.6875 138.0625 C42.34460938 138.77019531 42.00171875 139.47789062 41.6484375 140.20703125 C40.69015718 142.17529766 39.7017432 144.1226368 38.6875 146.0625 C36.13544399 143.76860086 34.74036701 141.51280843 33.24243164 138.43701172 C32.55009178 137.02680252 32.55009178 137.02680252 31.84376526 135.58810425 C31.35004929 134.56645172 30.85633331 133.54479919 30.34765625 132.4921875 C29.82546005 131.42372589 29.30326385 130.35526428 28.76524353 129.25442505 C27.08770755 125.81823755 25.4188353 122.3779201 23.75 118.9375 C22.66135502 116.70546194 21.57216757 114.47368837 20.48242188 112.2421875 C14.60800668 100.1992208 8.7915392 88.12893651 3.00186157 76.04504395 C-1.33625967 66.99671842 -5.7291444 57.97583502 -10.13977051 48.962677 C-16.14007464 36.69626814 -22.13685791 24.42768491 -28.0625 12.125 C-28.50988525 11.20315918 -28.95727051 10.28131836 -29.41821289 9.33154297 C-29.81129639 8.51186035 -30.20437988 7.69217773 -30.609375 6.84765625 C-30.94291992 6.15551025 -31.27646484 5.46336426 -31.62011719 4.75024414 C-32.3125 3.0625 -32.3125 3.0625 -32.3125 1.0625 C-21.52551108 -0.01656385 -10.82839445 -0.05551948 0 0 Z " fill="#000000" transform="translate(32.3125,5.9375)"/>
<path d="M0 0 C4.95 0 9.9 0 15 0 C25.47078568 20.74021009 35.39749862 41.73188498 45.14305115 62.82133484 C47.71401805 68.38453562 50.29205059 73.94444557 52.87109375 79.50390625 C54.15611767 82.27447662 55.44108979 85.045071 56.7260437 87.81567383 C57.56592568 89.62657567 58.40586972 91.43744874 59.24588013 93.24829102 C61.17209661 97.40129301 63.09609279 101.5552731 65.01391602 105.7121582 C66.22286509 108.33083409 67.44725676 110.93936217 68.68725586 113.54370117 C69.15010986 114.52443604 69.61296387 115.5051709 70.08984375 116.515625 C70.477771 117.32418945 70.86569824 118.13275391 71.26538086 118.96582031 C72 121 72 121 71.5625 124.1875 C71.046875 125.115625 70.53125 126.04375 70 127 C69.28883558 128.45695483 68.58062321 129.91535343 67.875 131.375 C67.2539497 132.58536811 66.63032133 133.79443396 66 135 C63.44794399 132.70610086 62.05286701 130.45030843 60.55493164 127.37451172 C60.09337173 126.43437225 59.63181183 125.49423279 59.15626526 124.52560425 C58.66254929 123.50395172 58.16883331 122.48229919 57.66015625 121.4296875 C56.87686195 119.82699509 56.87686195 119.82699509 56.07774353 118.19192505 C54.40020755 114.75573755 52.7313353 111.3154201 51.0625 107.875 C49.97385502 105.64296194 48.88466757 103.41118837 47.79492188 101.1796875 C41.92791236 89.15188921 36.11899379 77.09672851 30.33702087 65.02786255 C25.06439382 54.03058315 19.70518652 43.07605803 14.33837891 32.12451172 C0 2.85507916 0 2.85507916 0 0 Z " fill="#009DF0" transform="translate(5,17)"/>
</svg>
