<svg width="127" height="27" viewBox="0 0 127 27" fill="none" xmlns="http://www.w3.org/2000/svg">
<path d="M2.46606 1.05051L0.0100953 1.05051L11.5736 24.8597L12.5969 22.8131L2.46606 1.05051Z" fill="#009EF1"/>
<path d="M0 1.05064L8.11834 0.982414L8.90288 2.65384L0.784545 2.68795L0 1.05064Z" fill="#030303"/>
<path d="M14.8017 0.914352L16.9164 0.914366L12.4481 10.7382L11.3224 8.35047L14.8017 0.914352Z" fill="black"/>
<path d="M20.4376 0.914149L22.6077 0.914149L14.2977 18.9587L14.2636 14.3538L20.4376 0.914149Z" fill="black"/>
<path d="M8.11782 0.982687L5.86652 0.982691L14.313 18.9344L14.3471 14.3294L8.11782 0.982687Z" fill="black"/>
<path d="M31.8425 12.592L27.5534 0.81804H29.9755L33.2385 10.2709L36.5184 0.81804H38.9237L34.6346 12.592H31.8425ZM44.3483 12.7939C43.4961 12.7939 42.7392 12.6145 42.0776 12.2556C41.4272 11.8856 40.917 11.3754 40.547 10.725C40.1881 10.0634 40.0087 9.30093 40.0087 8.4375C40.0087 7.55165 40.1881 6.77232 40.547 6.09952C40.917 5.41551 41.4272 4.88287 42.0776 4.50162C42.728 4.10915 43.4849 3.91292 44.3483 3.91292C45.1893 3.91292 45.9238 4.09794 46.5517 4.46798C47.1797 4.83802 47.6674 5.33701 48.015 5.96496C48.3627 6.59291 48.5365 7.30495 48.5365 8.1011C48.5365 8.21323 48.5365 8.34219 48.5365 8.48796C48.5365 8.62252 48.5253 8.76269 48.5028 8.90846H41.6234V7.52922H46.2489C46.2153 6.97977 46.0191 6.54805 45.6602 6.23408C45.3126 5.92011 44.8753 5.76312 44.3483 5.76312C43.967 5.76312 43.6138 5.85283 43.2886 6.03224C42.9634 6.20044 42.7055 6.46395 42.5149 6.82278C42.3355 7.18161 42.2458 7.63575 42.2458 8.1852V8.67298C42.2458 9.13273 42.3299 9.53641 42.4981 9.88402C42.6775 10.2204 42.9242 10.4839 43.2382 10.6746C43.5521 10.854 43.9166 10.9437 44.3315 10.9437C44.7464 10.9437 45.0884 10.854 45.3575 10.6746C45.6378 10.4951 45.8453 10.2653 45.9798 9.98494H48.301C48.144 10.512 47.8805 10.9885 47.5104 11.4146C47.1404 11.8407 46.6863 12.1771 46.148 12.4238C45.6098 12.6705 45.0099 12.7939 44.3483 12.7939ZM51.4053 12.592V0.481641H53.676V12.592H51.4053ZM60.7169 12.592C60.1226 12.592 59.6012 12.5023 59.1526 12.3229C58.7153 12.1323 58.3733 11.8239 58.1266 11.3978C57.8799 10.9605 57.7566 10.3662 57.7566 9.6149V6.01542H56.3101V4.11476H57.7566L58.0089 1.81042H60.0273V4.11476H62.2643V6.01542H60.0273V9.64854C60.0273 10.0298 60.1114 10.2933 60.2796 10.4391C60.4478 10.5849 60.7337 10.6577 61.1374 10.6577H62.2475V12.592H60.7169ZM65.1846 12.592V4.11476H67.203L67.4216 5.67902C67.6235 5.30898 67.8758 4.99501 68.1785 4.7371C68.4925 4.47919 68.8457 4.27735 69.2382 4.13158C69.6419 3.98581 70.0848 3.91292 70.567 3.91292V6.31818H69.7933C69.4569 6.31818 69.1429 6.35743 68.8513 6.43592C68.571 6.51441 68.3243 6.64337 68.1113 6.82278C67.8982 6.99098 67.7356 7.22646 67.6235 7.52922C67.5114 7.83198 67.4553 8.21323 67.4553 8.67298V12.592H65.1846ZM73.1266 12.592V4.11476H75.3973V12.592H73.1266ZM74.2704 2.95418C73.8667 2.95418 73.5303 2.83644 73.2612 2.60096C73.0033 2.35427 72.8743 2.0459 72.8743 1.67586C72.8743 1.30582 73.0033 1.00306 73.2612 0.767581C73.5303 0.520888 73.8667 0.397541 74.2704 0.397541C74.6853 0.397541 75.0217 0.520888 75.2796 0.767581C75.5487 1.00306 75.6833 1.30582 75.6833 1.67586C75.6833 2.0459 75.5487 2.35427 75.2796 2.60096C75.0217 2.83644 74.6853 2.95418 74.2704 2.95418ZM77.9105 12.592L80.9549 8.3534L77.9105 4.11476H80.3662L82.4014 7.02462L84.4367 4.11476H86.8756L83.8311 8.3534L86.8756 12.592H84.4367L82.4014 9.66536L80.3662 12.592H77.9105Z" fill="#009EF1"/>
<path d="M94.8195 12.7939C93.6645 12.7939 92.6497 12.536 91.775 12.0202C90.9004 11.5043 90.2108 10.7923 89.7062 9.88402C89.2128 8.96453 88.9661 7.90487 88.9661 6.70504C88.9661 5.50521 89.2128 4.45116 89.7062 3.54288C90.2108 2.62339 90.9004 1.90573 91.775 1.38992C92.6497 0.874108 93.6645 0.616201 94.8195 0.616201C95.9744 0.616201 96.9948 0.874108 97.8807 1.38992C98.7666 1.90573 99.4506 2.62339 99.9327 3.54288C100.426 4.45116 100.673 5.50521 100.673 6.70504C100.673 7.90487 100.426 8.96453 99.9327 9.88402C99.4506 10.7923 98.7666 11.5043 97.8807 12.0202C96.9948 12.536 95.9744 12.7939 94.8195 12.7939ZM94.8195 10.5232C95.5035 10.5232 96.0866 10.3662 96.5687 10.0522C97.0621 9.73825 97.4434 9.30093 97.7125 8.74026C97.9816 8.16838 98.1162 7.48997 98.1162 6.70504C98.1162 5.92011 97.9816 5.24731 97.7125 4.68664C97.4434 4.11476 97.0621 3.67744 96.5687 3.37468C96.0866 3.06071 95.5035 2.90372 94.8195 2.90372C94.1579 2.90372 93.5804 3.06071 93.087 3.37468C92.5936 3.67744 92.2124 4.11476 91.9432 4.68664C91.6741 5.24731 91.5396 5.92011 91.5396 6.70504C91.5396 7.48997 91.6741 8.16838 91.9432 8.74026C92.2124 9.30093 92.5936 9.73825 93.087 10.0522C93.5804 10.3662 94.1579 10.5232 94.8195 10.5232ZM103.568 12.592V0.81804H106.091L111.255 8.55524V0.81804H113.778V12.592H111.255L106.091 4.88848V12.592H103.568ZM117.044 12.592V0.81804H124.933V2.85326H119.567V5.62856H124.428V7.57968H119.567V10.5568H124.933V12.592H117.044Z" fill="#202224"/>
<path d="M30.156 25.066C29.782 25.066 29.452 24.9817 29.166 24.813C28.88 24.6443 28.6563 24.4115 28.495 24.1145C28.3337 23.8138 28.253 23.4673 28.253 23.075C28.253 22.6827 28.3337 22.338 28.495 22.041C28.6563 21.7403 28.88 21.5057 29.166 21.337C29.452 21.1683 29.782 21.084 30.156 21.084C30.5337 21.084 30.8655 21.1683 31.1515 21.337C31.4375 21.5057 31.6593 21.7403 31.817 22.041C31.9783 22.338 32.059 22.6827 32.059 23.075C32.059 23.4673 31.9783 23.8138 31.817 24.1145C31.6593 24.4115 31.4375 24.6443 31.1515 24.813C30.8655 24.9817 30.5337 25.066 30.156 25.066ZM30.156 24.4005C30.3907 24.4005 30.5923 24.3473 30.761 24.241C30.9333 24.131 31.0672 23.977 31.1625 23.779C31.2578 23.581 31.3055 23.3463 31.3055 23.075C31.3055 22.8 31.2578 22.5653 31.1625 22.371C31.0672 22.173 30.9333 22.0208 30.761 21.9145C30.5923 21.8082 30.3907 21.755 30.156 21.755C29.925 21.755 29.7233 21.8082 29.551 21.9145C29.3787 22.0208 29.2448 22.173 29.1495 22.371C29.0542 22.5653 29.0065 22.8 29.0065 23.075C29.0065 23.3463 29.0542 23.581 29.1495 23.779C29.2448 23.977 29.3787 24.131 29.551 24.241C29.7233 24.3473 29.925 24.4005 30.156 24.4005ZM33.006 25V22.228H33.666L33.7375 22.7395C33.8035 22.6185 33.886 22.5158 33.985 22.4315C34.0877 22.3472 34.2032 22.2812 34.3315 22.2335C34.4635 22.1858 34.6083 22.162 34.766 22.162V22.9485H34.513C34.403 22.9485 34.3003 22.9613 34.205 22.987C34.1133 23.0127 34.0327 23.0548 33.963 23.1135C33.8933 23.1685 33.8402 23.2455 33.8035 23.3445C33.7668 23.4435 33.7485 23.5682 33.7485 23.7185V25H33.006ZM36.8855 25.066C36.6068 25.066 36.3593 25.0037 36.143 24.879C35.9267 24.7543 35.758 24.5838 35.637 24.3675C35.516 24.1512 35.4555 23.9037 35.4555 23.625C35.4555 23.339 35.516 23.0878 35.637 22.8715C35.758 22.6515 35.9267 22.4792 36.143 22.3545C36.3593 22.2262 36.6068 22.162 36.8855 22.162C37.2412 22.162 37.54 22.2555 37.782 22.4425C38.024 22.6295 38.178 22.8862 38.244 23.2125H37.4575C37.4245 23.0842 37.3548 22.9833 37.2485 22.91C37.1458 22.8367 37.023 22.8 36.88 22.8C36.7517 22.8 36.6362 22.833 36.5335 22.899C36.4345 22.9613 36.3557 23.0548 36.297 23.1795C36.242 23.3005 36.2145 23.4453 36.2145 23.614C36.2145 23.7423 36.231 23.8578 36.264 23.9605C36.297 24.0595 36.3428 24.1457 36.4015 24.219C36.4602 24.2887 36.5298 24.3418 36.6105 24.3785C36.6948 24.4152 36.7847 24.4335 36.88 24.4335C36.9753 24.4335 37.0615 24.417 37.1385 24.384C37.2192 24.351 37.287 24.3052 37.342 24.2465C37.397 24.1842 37.4355 24.109 37.4575 24.021H38.244C38.178 24.34 38.0222 24.5948 37.7765 24.7855C37.5345 24.9725 37.2375 25.066 36.8855 25.066ZM39.2143 25V21.04H39.9568V22.6405C40.0485 22.4938 40.1695 22.3783 40.3198 22.294C40.4738 22.206 40.6517 22.162 40.8533 22.162C41.0843 22.162 41.2787 22.2115 41.4363 22.3105C41.594 22.4058 41.7132 22.5452 41.7938 22.7285C41.8745 22.9118 41.9148 23.1392 41.9148 23.4105V25H41.1778V23.4765C41.1778 23.2565 41.132 23.0878 41.0403 22.9705C40.9487 22.8495 40.8038 22.789 40.6058 22.789C40.4848 22.789 40.3748 22.8183 40.2758 22.877C40.1768 22.9357 40.098 23.0218 40.0393 23.1355C39.9843 23.2455 39.9568 23.3775 39.9568 23.5315V25H39.2143ZM44.2752 25.066C43.9966 25.066 43.7491 25.0073 43.5327 24.89C43.3201 24.769 43.1532 24.6022 43.0322 24.3895C42.9149 24.1732 42.8562 23.9238 42.8562 23.6415C42.8562 23.3518 42.9149 23.097 43.0322 22.877C43.1532 22.6533 43.3201 22.4792 43.5327 22.3545C43.7454 22.2262 43.9929 22.162 44.2752 22.162C44.5502 22.162 44.7904 22.2225 44.9957 22.3435C45.2011 22.4645 45.3606 22.6277 45.4742 22.833C45.5879 23.0383 45.6447 23.2712 45.6447 23.5315C45.6447 23.5682 45.6447 23.6103 45.6447 23.658C45.6447 23.702 45.6411 23.7478 45.6337 23.7955H43.3842V23.3445H44.8967C44.8857 23.1648 44.8216 23.0237 44.7042 22.921C44.5906 22.8183 44.4476 22.767 44.2752 22.767C44.1506 22.767 44.0351 22.7963 43.9287 22.855C43.8224 22.91 43.7381 22.9962 43.6757 23.1135C43.6171 23.2308 43.5877 23.3793 43.5877 23.559V23.7185C43.5877 23.8688 43.6152 24.0008 43.6702 24.1145C43.7289 24.2245 43.8096 24.3107 43.9122 24.373C44.0149 24.4317 44.1341 24.461 44.2697 24.461C44.4054 24.461 44.5172 24.4317 44.6052 24.373C44.6969 24.3143 44.7647 24.2392 44.8087 24.1475H45.5677C45.5164 24.3198 45.4302 24.4757 45.3092 24.615C45.1882 24.7543 45.0397 24.8643 44.8637 24.945C44.6877 25.0257 44.4916 25.066 44.2752 25.066ZM47.7158 25.066C47.4628 25.066 47.2428 25.0257 47.0558 24.945C46.8688 24.8643 46.7222 24.7525 46.6158 24.6095C46.5095 24.4665 46.449 24.3052 46.4343 24.1255H47.1713C47.1897 24.1952 47.2208 24.2593 47.2648 24.318C47.3088 24.373 47.3675 24.417 47.4408 24.45C47.5142 24.483 47.6022 24.4995 47.7048 24.4995C47.8038 24.4995 47.8845 24.4867 47.9468 24.461C48.0092 24.4317 48.055 24.3932 48.0843 24.3455C48.1173 24.2978 48.1338 24.2483 48.1338 24.197C48.1338 24.12 48.1118 24.0613 48.0678 24.021C48.0238 23.977 47.9597 23.9422 47.8753 23.9165C47.791 23.8908 47.6883 23.8652 47.5673 23.8395C47.4353 23.8138 47.3052 23.7827 47.1768 23.746C47.0522 23.7057 46.9403 23.6562 46.8413 23.5975C46.7423 23.5388 46.6635 23.4637 46.6048 23.372C46.5462 23.2803 46.5168 23.1667 46.5168 23.031C46.5168 22.866 46.5608 22.7193 46.6488 22.591C46.7368 22.459 46.8652 22.3545 47.0338 22.2775C47.2025 22.2005 47.406 22.162 47.6443 22.162C47.978 22.162 48.242 22.2372 48.4363 22.3875C48.6307 22.5378 48.7462 22.745 48.7828 23.009H48.0843C48.0623 22.9247 48.0128 22.8587 47.9358 22.811C47.8625 22.7597 47.7635 22.734 47.6388 22.734C47.5068 22.734 47.406 22.7578 47.3363 22.8055C47.2667 22.8532 47.2318 22.9155 47.2318 22.9925C47.2318 23.0438 47.2538 23.0897 47.2978 23.13C47.3455 23.1703 47.4115 23.2052 47.4958 23.2345C47.5802 23.2602 47.6828 23.2858 47.8038 23.3115C48.0165 23.3555 48.2035 23.4068 48.3648 23.4655C48.5262 23.5205 48.6527 23.6012 48.7443 23.7075C48.836 23.8102 48.8818 23.9605 48.8818 24.1585C48.8818 24.3345 48.8342 24.4922 48.7388 24.6315C48.6435 24.7672 48.5078 24.8735 48.3318 24.9505C48.1595 25.0275 47.9542 25.066 47.7158 25.066ZM51.0026 25C50.8083 25 50.6378 24.9707 50.4911 24.912C50.3481 24.8497 50.2363 24.7488 50.1556 24.6095C50.075 24.4665 50.0346 24.2722 50.0346 24.0265V22.8495H49.5616V22.228H50.0346L50.1171 21.4745H50.7771V22.228H51.5086V22.8495H50.7771V24.0375C50.7771 24.1622 50.8046 24.2483 50.8596 24.296C50.9146 24.3437 51.0081 24.3675 51.1401 24.3675H51.5031V25H51.0026ZM52.4635 25V22.228H53.1235L53.195 22.7395C53.261 22.6185 53.3435 22.5158 53.4425 22.4315C53.5452 22.3472 53.6607 22.2812 53.789 22.2335C53.921 22.1858 54.0659 22.162 54.2235 22.162V22.9485H53.9705C53.8605 22.9485 53.7579 22.9613 53.6625 22.987C53.5709 23.0127 53.4902 23.0548 53.4205 23.1135C53.3509 23.1685 53.2977 23.2455 53.261 23.3445C53.2244 23.4435 53.206 23.5682 53.206 23.7185V25H52.4635ZM55.979 25.066C55.748 25.066 55.5573 25.0293 55.407 24.956C55.2567 24.879 55.1448 24.7782 55.0715 24.6535C55.0018 24.5252 54.967 24.384 54.967 24.23C54.967 24.0613 55.0092 23.9128 55.0935 23.7845C55.1815 23.6562 55.3117 23.5553 55.484 23.482C55.66 23.4087 55.88 23.372 56.144 23.372H56.8315C56.8315 23.2363 56.8132 23.1245 56.7765 23.0365C56.7398 22.9448 56.683 22.877 56.606 22.833C56.529 22.789 56.4263 22.767 56.298 22.767C56.1587 22.767 56.0395 22.7982 55.9405 22.8605C55.8452 22.9192 55.7865 23.0108 55.7645 23.1355H55.044C55.0623 22.9375 55.1265 22.767 55.2365 22.624C55.3502 22.4773 55.4987 22.3637 55.682 22.283C55.869 22.2023 56.0762 22.162 56.3035 22.162C56.5638 22.162 56.7893 22.206 56.98 22.294C57.1707 22.382 57.3173 22.5085 57.42 22.6735C57.5227 22.8385 57.574 23.042 57.574 23.284V25H56.947L56.8645 24.5765C56.8242 24.6498 56.7765 24.7158 56.7215 24.7745C56.6665 24.8332 56.6023 24.8845 56.529 24.9285C56.4557 24.9725 56.3732 25.0055 56.2815 25.0275C56.1898 25.0532 56.089 25.066 55.979 25.066ZM56.155 24.494C56.2503 24.494 56.3347 24.4775 56.408 24.4445C56.485 24.4078 56.551 24.3602 56.606 24.3015C56.661 24.2392 56.7032 24.1695 56.7325 24.0925C56.7655 24.0118 56.7875 23.9257 56.7985 23.834V23.8285H56.232C56.1183 23.8285 56.0248 23.8432 55.9515 23.8725C55.8818 23.8982 55.8305 23.9367 55.7975 23.988C55.7645 24.0393 55.748 24.098 55.748 24.164C55.748 24.2373 55.7645 24.2978 55.7975 24.3455C55.8305 24.3932 55.8782 24.4298 55.9405 24.4555C56.0028 24.4812 56.0743 24.494 56.155 24.494ZM59.8129 25C59.6186 25 59.4481 24.9707 59.3014 24.912C59.1584 24.8497 59.0466 24.7488 58.9659 24.6095C58.8853 24.4665 58.8449 24.2722 58.8449 24.0265V22.8495H58.3719V22.228H58.8449L58.9274 21.4745H59.5874V22.228H60.3189V22.8495H59.5874V24.0375C59.5874 24.1622 59.6149 24.2483 59.6699 24.296C59.7249 24.3437 59.8184 24.3675 59.9504 24.3675H60.3134V25H59.8129ZM62.535 25.066C62.2563 25.066 62.0088 25.0073 61.7925 24.89C61.5798 24.769 61.413 24.6022 61.292 24.3895C61.1747 24.1732 61.116 23.9238 61.116 23.6415C61.116 23.3518 61.1747 23.097 61.292 22.877C61.413 22.6533 61.5798 22.4792 61.7925 22.3545C62.0052 22.2262 62.2527 22.162 62.535 22.162C62.81 22.162 63.0502 22.2225 63.2555 22.3435C63.4608 22.4645 63.6203 22.6277 63.734 22.833C63.8477 23.0383 63.9045 23.2712 63.9045 23.5315C63.9045 23.5682 63.9045 23.6103 63.9045 23.658C63.9045 23.702 63.9008 23.7478 63.8935 23.7955H61.644V23.3445H63.1565C63.1455 23.1648 63.0813 23.0237 62.964 22.921C62.8503 22.8183 62.7073 22.767 62.535 22.767C62.4103 22.767 62.2948 22.7963 62.1885 22.855C62.0822 22.91 61.9978 22.9962 61.9355 23.1135C61.8768 23.2308 61.8475 23.3793 61.8475 23.559V23.7185C61.8475 23.8688 61.875 24.0008 61.93 24.1145C61.9887 24.2245 62.0693 24.3107 62.172 24.373C62.2747 24.4317 62.3938 24.461 62.5295 24.461C62.6652 24.461 62.777 24.4317 62.865 24.373C62.9567 24.3143 63.0245 24.2392 63.0685 24.1475H63.8275C63.7762 24.3198 63.69 24.4757 63.569 24.615C63.448 24.7543 63.2995 24.8643 63.1235 24.945C62.9475 25.0257 62.7513 25.066 62.535 25.066Z" fill="black"/>
<path d="M71.3795 25V21.15H72.122L73.893 23.8065V21.15H74.6355V25H73.893L72.122 22.349V25H71.3795ZM76.6348 25.066C76.4038 25.066 76.2132 25.0293 76.0628 24.956C75.9125 24.879 75.8007 24.7782 75.7273 24.6535C75.6577 24.5252 75.6228 24.384 75.6228 24.23C75.6228 24.0613 75.665 23.9128 75.7493 23.7845C75.8373 23.6562 75.9675 23.5553 76.1398 23.482C76.3158 23.4087 76.5358 23.372 76.7998 23.372H77.4873C77.4873 23.2363 77.469 23.1245 77.4323 23.0365C77.3957 22.9448 77.3388 22.877 77.2618 22.833C77.1848 22.789 77.0822 22.767 76.9538 22.767C76.8145 22.767 76.6953 22.7982 76.5963 22.8605C76.501 22.9192 76.4423 23.0108 76.4203 23.1355H75.6998C75.7182 22.9375 75.7823 22.767 75.8923 22.624C76.006 22.4773 76.1545 22.3637 76.3378 22.283C76.5248 22.2023 76.732 22.162 76.9593 22.162C77.2197 22.162 77.4452 22.206 77.6358 22.294C77.8265 22.382 77.9732 22.5085 78.0758 22.6735C78.1785 22.8385 78.2298 23.042 78.2298 23.284V25H77.6028L77.5203 24.5765C77.48 24.6498 77.4323 24.7158 77.3773 24.7745C77.3223 24.8332 77.2582 24.8845 77.1848 24.9285C77.1115 24.9725 77.029 25.0055 76.9373 25.0275C76.8457 25.0532 76.7448 25.066 76.6348 25.066ZM76.8108 24.494C76.9062 24.494 76.9905 24.4775 77.0638 24.4445C77.1408 24.4078 77.2068 24.3602 77.2618 24.3015C77.3168 24.2392 77.359 24.1695 77.3883 24.0925C77.4213 24.0118 77.4433 23.9257 77.4543 23.834V23.8285H76.8878C76.7742 23.8285 76.6807 23.8432 76.6073 23.8725C76.5377 23.8982 76.4863 23.9367 76.4533 23.988C76.4203 24.0393 76.4038 24.098 76.4038 24.164C76.4038 24.2373 76.4203 24.2978 76.4533 24.3455C76.4863 24.3932 76.534 24.4298 76.5963 24.4555C76.6587 24.4812 76.7302 24.494 76.8108 24.494ZM79.9144 25L78.8969 22.228H79.6779L80.3654 24.3015L81.0529 22.228H81.8284L80.8164 25H79.9144ZM82.6283 25V22.228H83.3708V25H82.6283ZM83.0023 21.8485C82.8703 21.8485 82.7603 21.81 82.6723 21.733C82.588 21.6523 82.5458 21.5515 82.5458 21.4305C82.5458 21.3095 82.588 21.2105 82.6723 21.1335C82.7603 21.0528 82.8703 21.0125 83.0023 21.0125C83.138 21.0125 83.248 21.0528 83.3323 21.1335C83.4203 21.2105 83.4643 21.3095 83.4643 21.4305C83.4643 21.5515 83.4203 21.6523 83.3323 21.733C83.248 21.81 83.138 21.8485 83.0023 21.8485ZM85.6446 26.276C85.3806 26.276 85.1496 26.243 84.9516 26.177C84.7536 26.1147 84.5996 26.0175 84.4896 25.8855C84.3832 25.7572 84.3301 25.5977 84.3301 25.407C84.3301 25.2787 84.3631 25.1577 84.4291 25.044C84.4951 24.9303 84.5904 24.8277 84.7151 24.736C84.8434 24.6407 85.0029 24.56 85.1936 24.494L85.4741 24.857C85.3054 24.912 85.1826 24.9798 85.1056 25.0605C85.0322 25.1448 84.9956 25.2347 84.9956 25.33C84.9956 25.4143 85.0231 25.4858 85.0781 25.5445C85.1367 25.6032 85.2137 25.6453 85.3091 25.671C85.4081 25.7003 85.5181 25.715 85.6391 25.715C85.7564 25.715 85.8572 25.7003 85.9416 25.671C86.0296 25.6417 86.0974 25.5977 86.1451 25.539C86.1964 25.484 86.2221 25.418 86.2221 25.341C86.2221 25.242 86.1872 25.1613 86.1176 25.099C86.0479 25.0367 85.9086 24.9982 85.6996 24.9835C85.5126 24.9688 85.3457 24.9487 85.1991 24.923C85.0561 24.8937 84.9296 24.8607 84.8196 24.824C84.7096 24.7837 84.6161 24.7397 84.5391 24.692C84.4657 24.6443 84.4052 24.5967 84.3576 24.549V24.4225L84.9461 23.79L85.4796 23.9605L84.7866 24.6425L84.9956 24.2795C85.0359 24.3015 85.0744 24.3235 85.1111 24.3455C85.1514 24.3638 85.2009 24.3822 85.2596 24.4005C85.3182 24.4152 85.3952 24.4298 85.4906 24.4445C85.5859 24.4592 85.7069 24.472 85.8536 24.483C86.0956 24.505 86.2936 24.5508 86.4476 24.6205C86.6052 24.6902 86.7207 24.7837 86.7941 24.901C86.8674 25.0147 86.9041 25.1558 86.9041 25.3245C86.9041 25.4895 86.8582 25.6435 86.7666 25.7865C86.6786 25.9332 86.5411 26.0505 86.3541 26.1385C86.1671 26.2302 85.9306 26.276 85.6446 26.276ZM85.6446 24.1805C85.4136 24.1805 85.2137 24.1365 85.0451 24.0485C84.8801 23.9568 84.7517 23.8358 84.6601 23.6855C84.5721 23.5315 84.5281 23.361 84.5281 23.174C84.5281 22.987 84.5721 22.8183 84.6601 22.668C84.7517 22.514 84.8801 22.3912 85.0451 22.2995C85.2137 22.2078 85.4136 22.162 85.6446 22.162C85.8792 22.162 86.0791 22.2078 86.2441 22.2995C86.4127 22.3912 86.5411 22.514 86.6291 22.668C86.7171 22.8183 86.7611 22.987 86.7611 23.174C86.7611 23.361 86.7171 23.5315 86.6291 23.6855C86.5411 23.8358 86.4127 23.9568 86.2441 24.0485C86.0791 24.1365 85.8792 24.1805 85.6446 24.1805ZM85.6446 23.614C85.7876 23.614 85.9031 23.5773 85.9911 23.504C86.0791 23.4307 86.1231 23.3225 86.1231 23.1795C86.1231 23.0365 86.0791 22.9283 85.9911 22.855C85.9031 22.778 85.7876 22.7395 85.6446 22.7395C85.5052 22.7395 85.3897 22.778 85.2981 22.855C85.2101 22.9283 85.1661 23.0365 85.1661 23.1795C85.1661 23.3225 85.2101 23.4307 85.2981 23.504C85.3897 23.5773 85.5052 23.614 85.6446 23.614ZM86.1066 22.756L85.9856 22.228H87.1241V22.668L86.1066 22.756ZM88.9924 25.066C88.7614 25.066 88.5708 25.0293 88.4204 24.956C88.2701 24.879 88.1583 24.7782 88.0849 24.6535C88.0153 24.5252 87.9804 24.384 87.9804 24.23C87.9804 24.0613 88.0226 23.9128 88.1069 23.7845C88.1949 23.6562 88.3251 23.5553 88.4974 23.482C88.6734 23.4087 88.8934 23.372 89.1574 23.372H89.8449C89.8449 23.2363 89.8266 23.1245 89.7899 23.0365C89.7533 22.9448 89.6964 22.877 89.6194 22.833C89.5424 22.789 89.4398 22.767 89.3114 22.767C89.1721 22.767 89.0529 22.7982 88.9539 22.8605C88.8586 22.9192 88.7999 23.0108 88.7779 23.1355H88.0574C88.0758 22.9375 88.1399 22.767 88.2499 22.624C88.3636 22.4773 88.5121 22.3637 88.6954 22.283C88.8824 22.2023 89.0896 22.162 89.3169 22.162C89.5773 22.162 89.8028 22.206 89.9934 22.294C90.1841 22.382 90.3308 22.5085 90.4334 22.6735C90.5361 22.8385 90.5874 23.042 90.5874 23.284V25H89.9604L89.8779 24.5765C89.8376 24.6498 89.7899 24.7158 89.7349 24.7745C89.6799 24.8332 89.6158 24.8845 89.5424 24.9285C89.4691 24.9725 89.3866 25.0055 89.2949 25.0275C89.2033 25.0532 89.1024 25.066 88.9924 25.066ZM89.1684 24.494C89.2638 24.494 89.3481 24.4775 89.4214 24.4445C89.4984 24.4078 89.5644 24.3602 89.6194 24.3015C89.6744 24.2392 89.7166 24.1695 89.7459 24.0925C89.7789 24.0118 89.8009 23.9257 89.8119 23.834V23.8285H89.2454C89.1318 23.8285 89.0383 23.8432 88.9649 23.8725C88.8953 23.8982 88.8439 23.9367 88.8109 23.988C88.7779 24.0393 88.7614 24.098 88.7614 24.164C88.7614 24.2373 88.7779 24.2978 88.8109 24.3455C88.8439 24.3932 88.8916 24.4298 88.9539 24.4555C89.0163 24.4812 89.0878 24.494 89.1684 24.494ZM92.8264 25C92.632 25 92.4615 24.9707 92.3149 24.912C92.1719 24.8497 92.06 24.7488 91.9794 24.6095C91.8987 24.4665 91.8584 24.2722 91.8584 24.0265V22.8495H91.3854V22.228H91.8584L91.9409 21.4745H92.6009V22.228H93.3324V22.8495H92.6009V24.0375C92.6009 24.1622 92.6284 24.2483 92.6834 24.296C92.7384 24.3437 92.8319 24.3675 92.9639 24.3675H93.3269V25H92.8264ZM95.5484 25.066C95.2698 25.066 95.0223 25.0073 94.8059 24.89C94.5933 24.769 94.4264 24.6022 94.3054 24.3895C94.1881 24.1732 94.1294 23.9238 94.1294 23.6415C94.1294 23.3518 94.1881 23.097 94.3054 22.877C94.4264 22.6533 94.5933 22.4792 94.8059 22.3545C95.0186 22.2262 95.2661 22.162 95.5484 22.162C95.8234 22.162 96.0636 22.2225 96.2689 22.3435C96.4743 22.4645 96.6338 22.6277 96.7474 22.833C96.8611 23.0383 96.9179 23.2712 96.9179 23.5315C96.9179 23.5682 96.9179 23.6103 96.9179 23.658C96.9179 23.702 96.9143 23.7478 96.9069 23.7955H94.6574V23.3445H96.1699C96.1589 23.1648 96.0948 23.0237 95.9774 22.921C95.8638 22.8183 95.7208 22.767 95.5484 22.767C95.4238 22.767 95.3083 22.7963 95.2019 22.855C95.0956 22.91 95.0113 22.9962 94.9489 23.1135C94.8903 23.2308 94.8609 23.3793 94.8609 23.559V23.7185C94.8609 23.8688 94.8884 24.0008 94.9434 24.1145C95.0021 24.2245 95.0828 24.3107 95.1854 24.373C95.2881 24.4317 95.4073 24.461 95.5429 24.461C95.6786 24.461 95.7904 24.4317 95.8784 24.373C95.9701 24.3143 96.0379 24.2392 96.0819 24.1475H96.8409C96.7896 24.3198 96.7034 24.4757 96.5824 24.615C96.4614 24.7543 96.3129 24.8643 96.1369 24.945C95.9609 25.0257 95.7648 25.066 95.5484 25.066Z" fill="black"/>
<path d="M104.38 25V21.15H106.91V21.7495H105.122V22.756H106.745V23.3335H105.122V24.4005H106.91V25H104.38ZM107.9 25V22.228H108.554L108.609 22.679C108.693 22.525 108.813 22.4003 108.967 22.305C109.124 22.2097 109.311 22.162 109.528 22.162C109.759 22.162 109.953 22.2097 110.111 22.305C110.268 22.4003 110.387 22.5397 110.468 22.723C110.552 22.9063 110.595 23.1318 110.595 23.3995V25H109.858V23.471C109.858 23.251 109.81 23.0823 109.715 22.965C109.623 22.8477 109.48 22.789 109.286 22.789C109.161 22.789 109.049 22.8183 108.95 22.877C108.855 22.9357 108.78 23.02 108.725 23.13C108.67 23.2363 108.642 23.3665 108.642 23.5205V25H107.9ZM112.818 26.276C112.554 26.276 112.323 26.243 112.125 26.177C111.927 26.1147 111.773 26.0175 111.663 25.8855C111.556 25.7572 111.503 25.5977 111.503 25.407C111.503 25.2787 111.536 25.1577 111.602 25.044C111.668 24.9303 111.763 24.8277 111.888 24.736C112.016 24.6407 112.176 24.56 112.367 24.494L112.647 24.857C112.478 24.912 112.356 24.9798 112.279 25.0605C112.205 25.1448 112.169 25.2347 112.169 25.33C112.169 25.4143 112.196 25.4858 112.251 25.5445C112.31 25.6032 112.387 25.6453 112.482 25.671C112.581 25.7003 112.691 25.715 112.812 25.715C112.929 25.715 113.03 25.7003 113.115 25.671C113.203 25.6417 113.27 25.5977 113.318 25.539C113.369 25.484 113.395 25.418 113.395 25.341C113.395 25.242 113.36 25.1613 113.291 25.099C113.221 25.0367 113.082 24.9982 112.873 24.9835C112.686 24.9688 112.519 24.9487 112.372 24.923C112.229 24.8937 112.103 24.8607 111.993 24.824C111.883 24.7837 111.789 24.7397 111.712 24.692C111.639 24.6443 111.578 24.5967 111.531 24.549V24.4225L112.119 23.79L112.653 23.9605L111.96 24.6425L112.169 24.2795C112.209 24.3015 112.247 24.3235 112.284 24.3455C112.324 24.3638 112.374 24.3822 112.433 24.4005C112.491 24.4152 112.568 24.4298 112.664 24.4445C112.759 24.4592 112.88 24.472 113.027 24.483C113.269 24.505 113.467 24.5508 113.621 24.6205C113.778 24.6902 113.894 24.7837 113.967 24.901C114.04 25.0147 114.077 25.1558 114.077 25.3245C114.077 25.4895 114.031 25.6435 113.94 25.7865C113.852 25.9332 113.714 26.0505 113.527 26.1385C113.34 26.2302 113.104 26.276 112.818 26.276ZM112.818 24.1805C112.587 24.1805 112.387 24.1365 112.218 24.0485C112.053 23.9568 111.925 23.8358 111.833 23.6855C111.745 23.5315 111.701 23.361 111.701 23.174C111.701 22.987 111.745 22.8183 111.833 22.668C111.925 22.514 112.053 22.3912 112.218 22.2995C112.387 22.2078 112.587 22.162 112.818 22.162C113.052 22.162 113.252 22.2078 113.417 22.2995C113.586 22.3912 113.714 22.514 113.802 22.668C113.89 22.8183 113.934 22.987 113.934 23.174C113.934 23.361 113.89 23.5315 113.802 23.6855C113.714 23.8358 113.586 23.9568 113.417 24.0485C113.252 24.1365 113.052 24.1805 112.818 24.1805ZM112.818 23.614C112.961 23.614 113.076 23.5773 113.164 23.504C113.252 23.4307 113.296 23.3225 113.296 23.1795C113.296 23.0365 113.252 22.9283 113.164 22.855C113.076 22.778 112.961 22.7395 112.818 22.7395C112.678 22.7395 112.563 22.778 112.471 22.855C112.383 22.9283 112.339 23.0365 112.339 23.1795C112.339 23.3225 112.383 23.4307 112.471 23.504C112.563 23.5773 112.678 23.614 112.818 23.614ZM113.28 22.756L113.159 22.228H114.297V22.668L113.28 22.756ZM116.165 25.066C115.934 25.066 115.744 25.0293 115.593 24.956C115.443 24.879 115.331 24.7782 115.258 24.6535C115.188 24.5252 115.153 24.384 115.153 24.23C115.153 24.0613 115.196 23.9128 115.28 23.7845C115.368 23.6562 115.498 23.5553 115.67 23.482C115.846 23.4087 116.066 23.372 116.33 23.372H117.018C117.018 23.2363 117 23.1245 116.963 23.0365C116.926 22.9448 116.869 22.877 116.792 22.833C116.715 22.789 116.613 22.767 116.484 22.767C116.345 22.767 116.226 22.7982 116.127 22.8605C116.032 22.9192 115.973 23.0108 115.951 23.1355H115.23C115.249 22.9375 115.313 22.767 115.423 22.624C115.537 22.4773 115.685 22.3637 115.868 22.283C116.055 22.2023 116.263 22.162 116.49 22.162C116.75 22.162 116.976 22.206 117.166 22.294C117.357 22.382 117.504 22.5085 117.606 22.6735C117.709 22.8385 117.76 23.042 117.76 23.284V25H117.133L117.051 24.5765C117.011 24.6498 116.963 24.7158 116.908 24.7745C116.853 24.8332 116.789 24.8845 116.715 24.9285C116.642 24.9725 116.56 25.0055 116.468 25.0275C116.376 25.0532 116.275 25.066 116.165 25.066ZM116.341 24.494C116.437 24.494 116.521 24.4775 116.594 24.4445C116.671 24.4078 116.737 24.3602 116.792 24.3015C116.847 24.2392 116.89 24.1695 116.919 24.0925C116.952 24.0118 116.974 23.9257 116.985 23.834V23.8285H116.418C116.305 23.8285 116.211 23.8432 116.138 23.8725C116.068 23.8982 116.017 23.9367 115.984 23.988C115.951 24.0393 115.934 24.098 115.934 24.164C115.934 24.2373 115.951 24.2978 115.984 24.3455C116.017 24.3932 116.065 24.4298 116.127 24.4555C116.189 24.4812 116.261 24.494 116.341 24.494ZM119.977 26.276C119.713 26.276 119.482 26.243 119.284 26.177C119.086 26.1147 118.932 26.0175 118.822 25.8855C118.715 25.7572 118.662 25.5977 118.662 25.407C118.662 25.2787 118.695 25.1577 118.761 25.044C118.827 24.9303 118.922 24.8277 119.047 24.736C119.175 24.6407 119.335 24.56 119.526 24.494L119.806 24.857C119.637 24.912 119.515 24.9798 119.438 25.0605C119.364 25.1448 119.328 25.2347 119.328 25.33C119.328 25.4143 119.355 25.4858 119.41 25.5445C119.469 25.6032 119.546 25.6453 119.641 25.671C119.74 25.7003 119.85 25.715 119.971 25.715C120.088 25.715 120.189 25.7003 120.274 25.671C120.362 25.6417 120.429 25.5977 120.477 25.539C120.528 25.484 120.554 25.418 120.554 25.341C120.554 25.242 120.519 25.1613 120.45 25.099C120.38 25.0367 120.241 24.9982 120.032 24.9835C119.845 24.9688 119.678 24.9487 119.531 24.923C119.388 24.8937 119.262 24.8607 119.152 24.824C119.042 24.7837 118.948 24.7397 118.871 24.692C118.798 24.6443 118.737 24.5967 118.69 24.549V24.4225L119.278 23.79L119.812 23.9605L119.119 24.6425L119.328 24.2795C119.368 24.3015 119.406 24.3235 119.443 24.3455C119.483 24.3638 119.533 24.3822 119.592 24.4005C119.65 24.4152 119.727 24.4298 119.823 24.4445C119.918 24.4592 120.039 24.472 120.186 24.483C120.428 24.505 120.626 24.5508 120.78 24.6205C120.937 24.6902 121.053 24.7837 121.126 24.901C121.199 25.0147 121.236 25.1558 121.236 25.3245C121.236 25.4895 121.19 25.6435 121.099 25.7865C121.011 25.9332 120.873 26.0505 120.686 26.1385C120.499 26.2302 120.263 26.276 119.977 26.276ZM119.977 24.1805C119.746 24.1805 119.546 24.1365 119.377 24.0485C119.212 23.9568 119.084 23.8358 118.992 23.6855C118.904 23.5315 118.86 23.361 118.86 23.174C118.86 22.987 118.904 22.8183 118.992 22.668C119.084 22.514 119.212 22.3912 119.377 22.2995C119.546 22.2078 119.746 22.162 119.977 22.162C120.211 22.162 120.411 22.2078 120.576 22.2995C120.745 22.3912 120.873 22.514 120.961 22.668C121.049 22.8183 121.093 22.987 121.093 23.174C121.093 23.361 121.049 23.5315 120.961 23.6855C120.873 23.8358 120.745 23.9568 120.576 24.0485C120.411 24.1365 120.211 24.1805 119.977 24.1805ZM119.977 23.614C120.12 23.614 120.235 23.5773 120.323 23.504C120.411 23.4307 120.455 23.3225 120.455 23.1795C120.455 23.0365 120.411 22.9283 120.323 22.855C120.235 22.778 120.12 22.7395 119.977 22.7395C119.837 22.7395 119.722 22.778 119.63 22.855C119.542 22.9283 119.498 23.0365 119.498 23.1795C119.498 23.3225 119.542 23.4307 119.63 23.504C119.722 23.5773 119.837 23.614 119.977 23.614ZM120.439 22.756L120.318 22.228H121.456V22.668L120.439 22.756ZM123.613 25.066C123.334 25.066 123.087 25.0073 122.871 24.89C122.658 24.769 122.491 24.6022 122.37 24.3895C122.253 24.1732 122.194 23.9238 122.194 23.6415C122.194 23.3518 122.253 23.097 122.37 22.877C122.491 22.6533 122.658 22.4792 122.871 22.3545C123.083 22.2262 123.331 22.162 123.613 22.162C123.888 22.162 124.128 22.2225 124.334 22.3435C124.539 22.4645 124.698 22.6277 124.812 22.833C124.926 23.0383 124.983 23.2712 124.983 23.5315C124.983 23.5682 124.983 23.6103 124.983 23.658C124.983 23.702 124.979 23.7478 124.972 23.7955H122.722V23.3445H124.235C124.224 23.1648 124.159 23.0237 124.042 22.921C123.928 22.8183 123.785 22.767 123.613 22.767C123.488 22.767 123.373 22.7963 123.267 22.855C123.16 22.91 123.076 22.9962 123.014 23.1135C122.955 23.2308 122.926 23.3793 122.926 23.559V23.7185C122.926 23.8688 122.953 24.0008 123.008 24.1145C123.067 24.2245 123.147 24.3107 123.25 24.373C123.353 24.4317 123.472 24.461 123.608 24.461C123.743 24.461 123.855 24.4317 123.943 24.373C124.035 24.3143 124.103 24.2392 124.147 24.1475H124.906C124.854 24.3198 124.768 24.4757 124.647 24.615C124.526 24.7543 124.378 24.8643 124.202 24.945C124.026 25.0257 123.829 25.066 123.613 25.066Z" fill="black"/>
<circle cx="100.5" cy="23.5" r="0.5" fill="black"/>
<circle cx="67.5" cy="23.5" r="0.5" fill="black"/>
<path d="M28 17L125 17" stroke="#989898" stroke-width="0.2" stroke-linecap="round"/>
</svg>
