<svg xmlns="http://www.w3.org/2000/svg" width="17" height="17" viewBox="0 0 17 17">
    <g fill="none" fill-rule="evenodd">
        <g fill="#EAA22C" fill-rule="nonzero">
            <path d="M247.512 360.38l-6.923-6.923c-.61-.61-1.6-.61-2.21 0l-6.917 6.917-.007.007c-.437.439-.573 1.094-.348 1.67.225.576.77.965 1.388.991h.324v5.097c.001 1.01.819 1.827 1.828 1.828h2.707c.276 0 .5-.223.5-.5v-3.99c0-.46.373-.834.834-.835h1.6c.46.001.833.374.834.834v3.993c0 .277.224.5.5.5h2.708c1.009 0 1.827-.818 1.828-1.828v-5.096h.256c.63-.002 1.197-.384 1.437-.967s.106-1.253-.34-1.699z" transform="translate(-231 -353)"/>
        </g>
    </g>
</svg>
