<svg xmlns="http://www.w3.org/2000/svg" width="13" height="15" viewBox="0 0 13 15">
    <g fill="none" fill-rule="evenodd" opacity=".7">
        <g fill="#FFF" fill-rule="nonzero">
            <g>
                <g>
                    <path d="M1.3 0H0c.137.374.206.768.206 1.166v4.928c0 .166-.028.33-.084.487h2.155c.806-.001 1.459-.654 1.46-1.46V2.435c0-.646-.257-1.266-.714-1.722C2.566.256 1.946 0 1.3 0z" transform="translate(-287 -314) translate(287 314) translate(8.624 7.721)"/>
                </g>
                <g>
                    <path d="M5.415 0H2.434C1.09.001.001 1.09 0 2.434v4.928c0 .269.218.487.487.487h6.875c.269 0 .487-.218.487-.487V2.434C7.848 1.09 6.759.001 5.415 0z" transform="translate(-287 -314) translate(287 314) translate(0 6.453)"/>
                </g>
                <g>
                    <path d="M2.925 0C1.309 0 0 1.31 0 2.926s1.31 2.926 2.926 2.926c1.615 0 2.925-1.31 2.926-2.925C5.85 1.311 4.541.002 2.925 0z" transform="translate(-287 -314) translate(287 314) translate(1.001)"/>
                </g>
                <g>
                    <path d="M2.189 0C.98 0 0 .98 0 2.189s.98 2.189 2.189 2.189 2.189-.98 2.189-2.189C4.377.981 3.398.001 2.189 0z" transform="translate(-287 -314) translate(287 314) translate(6.88 2.728)"/>
                </g>
            </g>
        </g>
    </g>
</svg>
