<svg xmlns="http://www.w3.org/2000/svg" width="14" height="16" viewBox="0 0 14 16">
    <g fill="none" fill-rule="evenodd">
        <g fill="#EAA22C" fill-rule="nonzero">
            <g>
                <g>
                    <path d="M1.306 0h-1.3c.137.374.206.768.206 1.166v4.928c0 .166-.028.33-.084.487h2.155c.806-.001 1.459-.654 1.46-1.46V2.435c0-.646-.257-1.266-.714-1.722C2.572.256 1.952 0 1.306 0z" transform="translate(-286 -356) translate(286 356) translate(9.122 8.561)"/>
                </g>
                <g>
                    <path d="M5.414 0H2.433C1.089.001 0 1.09-.001 2.434v4.928c0 .269.218.487.487.487h6.875c.269 0 .487-.218.487-.487V2.434C7.847 1.09 6.758.001 5.414 0z" transform="translate(-286 -356) translate(286 356) translate(.505 7.293)"/>
                </g>
                <g>
                    <path d="M2.927 0C1.311 0 .002 1.31.002 2.926s1.31 2.926 2.926 2.926c1.615 0 2.925-1.31 2.926-2.925C5.852 1.311 4.543.002 2.927 0z" transform="translate(-286 -356) translate(286 356) translate(1.503 .84)"/>
                </g>
                <g>
                    <path d="M2.193 0C.984 0 .004.98.004 2.189s.98 2.189 2.189 2.189 2.189-.98 2.189-2.189C4.381.981 3.402.001 2.193 0z" transform="translate(-286 -356) translate(286 356) translate(7.38 3.568)"/>
                </g>
            </g>
        </g>
    </g>
</svg>
